<?xml version="1.0" standalone="no"?>
<!DOCTYPE svg PUBLIC "-//W3C//DTD SVG 20010904//EN"
 "http://www.w3.org/TR/2001/REC-SVG-20010904/DTD/svg10.dtd">
<svg version="1.0" xmlns="http://www.w3.org/2000/svg"
 width="400.000000pt" height="400.000000pt" viewBox="0 0 400.000000 400.000000"
 preserveAspectRatio="xMidYMid meet">

<g transform="translate(0.000000,400.000000) scale(0.100000,-0.100000)"
fill="#000000" stroke="none">
<path d="M2815 2801 c-118 -42 -190 -102 -237 -199 -30 -60 -33 -75 -33 -157
0 -211 87 -306 382 -416 223 -84 262 -111 311 -218 34 -73 29 -180 -12 -241
-54 -82 -162 -119 -287 -99 -82 13 -132 40 -199 108 -61 62 -102 132 -135 230
l-22 66 -43 3 -43 3 6 -92 c4 -51 7 -157 7 -236 l0 -143 43 0 c37 0 45 4 60
30 22 36 25 36 85 6 69 -34 205 -66 287 -66 187 0 360 99 431 247 22 47 29 76
32 149 6 118 -13 185 -71 255 -55 67 -137 116 -311 184 -250 99 -312 147 -336
260 -37 179 121 307 311 252 107 -31 181 -120 240 -286 l37 -106 36 -3 36 -3
0 230 0 231 -42 0 c-37 0 -45 -4 -60 -30 l-17 -31 -63 32 c-35 18 -85 38 -113
45 -73 20 -219 17 -280 -5z"/>
<path d="M452 2759 c3 -29 8 -33 51 -44 57 -14 95 -41 119 -81 9 -16 92 -294
183 -619 91 -324 168 -598 171 -607 4 -14 16 -18 49 -18 l43 0 30 88 c16 48
96 281 176 517 80 237 149 437 152 445 3 9 19 -24 35 -75 17 -49 95 -289 175
-533 l145 -443 46 3 47 3 37 120 c21 66 103 336 184 600 82 270 157 496 170
516 25 39 111 89 152 89 20 0 23 5 23 35 l0 35 -250 0 -250 0 0 -34 0 -33 59
-7 c36 -4 72 -16 93 -30 56 -38 52 -60 -114 -646 -44 -157 -84 -289 -88 -293
-4 -5 -84 222 -178 505 l-170 513 -49 3 -50 3 -76 -223 c-42 -123 -117 -347
-168 -498 -50 -151 -95 -279 -99 -283 -7 -8 -245 815 -256 885 -8 46 11 57
107 65 l69 6 0 33 0 34 -286 0 -285 0 3 -31z"/>
</g>
</svg>
